<svg width="56" height="56" viewBox="0 0 56 56" fill="none" xmlns="http://www.w3.org/2000/svg">
<circle cx="28" cy="28" r="28" fill="#05A3C9"/>
<g clip-path="url(#clip0_81_31)">
<path fill-rule="evenodd" clip-rule="evenodd" d="M23.2593 11.1687C21.0011 12.3466 19.1536 13.3434 19.154 13.3839C19.155 13.4885 24.5737 16.2365 24.766 16.2298C24.8535 16.2269 25.4881 15.9343 26.1763 15.5798L27.4276 14.9353L28.7943 15.6387L30.1608 16.3423L32.3988 15.3353C35.7711 13.8179 36.1213 13.6516 36.0664 13.5957C35.9936 13.5216 34.784 12.8709 31.5024 11.1409C29.9165 10.3048 28.3772 9.48501 28.0816 9.31912C27.7862 9.15324 27.5041 9.01979 27.4548 9.02238C27.4055 9.02496 25.5175 9.99081 23.2593 11.1687ZM13.355 16.3044L11.0042 17.5203V22.8566C11.0042 25.7915 11.0351 28.1928 11.073 28.1928C11.1107 28.1928 12.2673 27.6908 13.643 27.0772L16.1445 25.9615V20.3368L17.3668 21.0036C18.3088 21.5171 19.2513 22.0294 20.1943 22.5407L21.7994 23.411L22.5137 23.0876C22.9616 22.8844 23.4087 22.6793 23.8548 22.4722C24.1995 22.3114 25.0458 21.9297 25.7353 21.6238C26.4249 21.3178 27.0632 21.0101 27.1537 20.9399C27.2739 20.8468 25.8078 20.0355 21.7311 17.9392C18.6582 16.359 16.0453 15.0712 15.9248 15.0773C15.8043 15.0835 14.6479 15.6356 13.355 16.3044ZM36.4901 16.6459C34.8891 17.3696 33.578 17.9907 33.5766 18.0261C33.5752 18.0615 34.4477 18.581 35.5158 19.1805C36.5837 19.7801 37.4575 20.3027 37.4575 20.342C37.4575 20.3813 36.5125 20.8398 35.3576 21.3612C34.2025 21.8824 31.283 23.2026 28.8696 24.2951L20.7832 27.9552C18.7491 28.876 16.9155 29.706 16.7087 29.7998C12.5538 31.6832 11.4118 32.2058 11.255 32.2955C11.0973 32.3859 11.0616 32.9106 11.0335 35.5441L11 38.6851L13.1021 39.7577L15.2042 40.8302L18.1191 39.5129C19.7223 38.7884 21.0339 38.1577 21.0339 38.1113C21.0339 38.065 20.7377 37.8717 20.3757 37.6816C20.0136 37.4915 19.2662 37.0707 18.7146 36.7462C18.163 36.4218 17.613 36.1241 17.4922 36.0846C17.3715 36.0453 17.2745 35.9764 17.2764 35.9315C17.2784 35.8867 18.562 35.2762 20.1286 34.5747C23.1715 33.2123 25.5002 32.1624 30.4994 29.8985C32.7349 28.8864 34.9707 27.8749 37.2068 26.864C39.172 25.9758 41.4569 24.9384 42.2843 24.5588L43.7888 23.8685L43.8222 20.6917L43.8559 17.5151L41.7238 16.4192C40.5511 15.8166 39.5487 15.325 39.4962 15.3268C39.4437 15.3284 38.0909 15.922 36.4901 16.6459ZM43.2176 28.1065C42.9034 28.2601 42.2828 28.5479 41.8385 28.7458C41.3942 28.9437 40.5511 29.3247 39.965 29.5925L38.8993 30.0792L38.875 32.8681C38.8616 34.402 38.8052 35.6501 38.7496 35.642C38.6235 35.6233 36.6262 34.5976 34.6185 33.5203C33.1695 32.7429 33.0784 32.712 32.7379 32.8808C32.5411 32.9785 31.3645 33.5069 30.1233 34.0553C28.8821 34.6035 27.8262 35.0879 27.7765 35.1318C27.727 35.1756 30.225 36.5313 33.3278 38.1447L38.9692 41.0782L41.379 39.8298C42.7043 39.1434 43.8313 38.5172 43.8832 38.4384C44 38.2613 43.99 27.8027 43.873 27.8169C43.8268 27.8224 43.5317 27.9528 43.2176 28.1065ZM29.8726 40.3822C29.4546 40.5621 29.0367 40.7424 28.6189 40.9228C27.3573 41.4694 27.6045 41.4875 26.1036 40.7393C25.1039 40.241 24.673 40.0872 24.4859 40.1619C24.3456 40.2178 23.1382 40.7618 21.8025 41.3707C20.4669 41.9795 19.3277 42.4777 19.2711 42.4777C18.7107 42.4777 19.6423 43.035 23.2372 44.8509L27.4532 46.9803L29.2271 46.1033C30.2027 45.621 32.1705 44.6551 33.6001 43.957C35.0296 43.2587 36.1815 42.6693 36.16 42.6471C36.1382 42.6249 34.9404 42.009 33.4981 41.2784L30.8756 39.9502L29.8726 40.3822Z" fill="white"/>
</g>
<defs>
<clipPath id="clip0_81_31">
<rect width="33" height="38" fill="white" transform="translate(11 9)"/>
</clipPath>
</defs>
</svg>
